<svg width="34" height="34" viewBox="0 0 34 34" fill="none" xmlns="http://www.w3.org/2000/svg">
<path d="M12.75 23.375C11.7583 23.375 10.9201 23.0326 10.2354 22.3479C9.55069 21.6632 9.20833 20.825 9.20833 19.8333C9.20833 18.8417 9.55069 18.0035 10.2354 17.3188C10.9201 16.634 11.7583 16.2917 12.75 16.2917C13.7417 16.2917 14.5799 16.634 15.2646 17.3188C15.9493 18.0035 16.2917 18.8417 16.2917 19.8333C16.2917 20.825 15.9493 21.6632 15.2646 22.3479C14.5799 23.0326 13.7417 23.375 12.75 23.375ZM7.08333 31.1667C6.30417 31.1667 5.63715 30.8892 5.08229 30.3344C4.52743 29.7795 4.25 29.1125 4.25 28.3333V8.5C4.25 7.72084 4.52743 7.05382 5.08229 6.49896C5.63715 5.9441 6.30417 5.66667 7.08333 5.66667H8.5V2.83334H11.3333V5.66667H22.6667V2.83334H25.5V5.66667H26.9167C27.6958 5.66667 28.3628 5.9441 28.9177 6.49896C29.4726 7.05382 29.75 7.72084 29.75 8.5V28.3333C29.75 29.1125 29.4726 29.7795 28.9177 30.3344C28.3628 30.8892 27.6958 31.1667 26.9167 31.1667H7.08333ZM7.08333 28.3333H26.9167V14.1667H7.08333V28.3333Z" fill="#1D1B20"/>
</svg>
